<?xml version="1.0" encoding="utf-8"?>
<!-- Generator: Adobe Illustrator 16.0.0, SVG Export Plug-In . SVG Version: 6.00 Build 0)  -->
<!DOCTYPE svg PUBLIC "-//W3C//DTD SVG 1.1//EN" "http://www.w3.org/Graphics/SVG/1.1/DTD/svg11.dtd">
<svg version="1.1" id="Layer_1" xmlns="http://www.w3.org/2000/svg" xmlns:xlink="http://www.w3.org/1999/xlink" x="0px" y="0px"
	 width="100.035px" height="100.034px" viewBox="0 0 100.035 100.034" enable-background="new 0 0 100.035 100.034"
	 xml:space="preserve">
<path fill="#C4C79C" d="M50.017,0C22.394,0,0,22.392,0,50.017s22.394,50.017,50.017,50.017s50.018-22.392,50.018-50.017
	S77.64,0,50.017,0z M61.043,70.809c-0.071,0.066-0.146,0.135-0.22,0.202c-7.138,6.563-14.52,9.139-17.51,9.139
	c-3.223,0-5.585-1.99-3.331-10.73l3.699-15.515c0.646-2.48,0.751-3.48,0-3.48c-0.741,0-3.366,1.008-5.666,2.244
	c-0.155,0.076-0.305,0.16-0.456,0.245c-0.182,0.067-0.377,0.102-0.582,0.102c-0.949,0-1.717-0.771-1.717-1.719
	c0-0.534,0.243-1.008,0.624-1.33c0.021-0.017,0.042-0.034,0.065-0.05c7.458-5.903,15.6-9.333,19.218-9.333
	c3.22,0,3.761,3.879,2.149,9.841l-4.234,16.311c-0.752,2.88-0.428,3.871,0.321,3.871c0.756,0,2.854-0.729,5.221-2.236
	c0.003,0,0.005,0,0.007,0c0.142-0.094,0.283-0.179,0.426-0.279c0.218-0.102,0.459-0.152,0.713-0.152
	c0.949,0,1.718,0.771,1.718,1.719C61.491,70.104,61.323,70.503,61.043,70.809z M53.836,32.834c-3.866,0-6.121-2.287-6.013-6.064
	c0-3.184,2.683-7.554,8.054-7.554c4.08,0,6.119,2.787,6.119,5.962C61.997,29.158,58.455,32.834,53.836,32.834z"/>
</svg>
