<?xml version="1.0" encoding="utf-8"?>
<!-- Generator: Adobe Illustrator 18.0.0, SVG Export Plug-In . SVG Version: 6.00 Build 0)  -->
<!DOCTYPE svg PUBLIC "-//W3C//DTD SVG 1.1//EN" "http://www.w3.org/Graphics/SVG/1.1/DTD/svg11.dtd">
<svg version="1.1" id="Layer_1" xmlns="http://www.w3.org/2000/svg" xmlns:xlink="http://www.w3.org/1999/xlink" x="0px" y="0px"
	 viewBox="-45.3 0.6 510.2 297.6" enable-background="new -45.3 0.6 510.2 297.6" xml:space="preserve">
<g>
	<path d="M280.2,287.8h-65.3v-15.7h-10.5v15.7h-65.2c-4.3,0-7.8,3.5-7.8,7.8v2.6h156.7v-2.6C288,291.3,284.5,287.8,280.2,287.8z"/>
	<path d="M457.1,0.6H-37.5c-4.3,0-7.8,3.5-7.8,7.8v253.2c0,4.3,3.5,7.8,7.8,7.8h494.6c4.3,0,7.8-3.5,7.8-7.8V8.5
		C464.9,4.1,461.4,0.6,457.1,0.6z M446.6,248.7H-27.1c-2.9,0-5.2-2.3-5.2-5.2V18.9c0-2.9,2.3-5.2,5.2-5.2h473.7
		c2.9,0,5.2,2.3,5.2,5.2v224.5h0.1C451.8,246.3,449.5,248.7,446.6,248.7z"/>
</g>
</svg>
